# xmcd CD database file
#
# Track frame offsets:
#	150
#	18227
#	31135
#
# Disc length: 717 seconds
#
# Revision: 0
# Processed by: cddbd v1.5PL3 Copyright (c) Steve Scherf et al.
# Submitted via: CDex 1.51
#
DISCID=1502cb03
DTITLE=Strawberry JAM - 魔法をかけて
DYEAR=2000
DGENRE=JPop
TTITLE0=魔法をかけて
TTITLE1=Lovely you, I Love you
TTITLE2=Girl
EXTD=YEAR: 2000
EXTT0=
EXTT1=
EXTT2=
PLAYORDER=
